<svg width="32" height="29" viewBox="0 0 32 29" fill="none" xmlns="http://www.w3.org/2000/svg">
<path d="M23.37 2.32C24.2019 2.31929 25.0256 2.48719 25.7928 2.81386C26.56 3.14054 27.2552 3.61941 27.8377 4.2224C29.038 5.4594 29.7107 7.12606 29.7107 8.8624C29.7107 10.5987 29.038 12.2654 27.8377 13.5024L16 25.6708L4.16229 13.5024C2.96204 12.2654 2.28926 10.5987 2.28926 8.8624C2.28926 7.12606 2.96204 5.4594 4.16229 4.2224C4.74514 3.61984 5.44041 3.14122 6.20751 2.8145C6.9746 2.48778 7.79813 2.3195 8.63 2.3195C9.46186 2.3195 10.2854 2.48778 11.0525 2.8145C11.8196 3.14122 12.5149 3.61984 13.0977 4.2224L16 7.2384L18.8909 4.2456C19.4716 3.63542 20.1676 3.1504 20.9372 2.81954C21.7068 2.48869 22.5342 2.31879 23.37 2.32ZM23.37 3.11211e-06C22.2338 -0.000974444 21.1088 0.228355 20.0611 0.674545C19.0133 1.12074 18.0638 1.77481 17.2683 2.5984L16 3.8976L14.7317 2.5984C13.9352 1.77629 12.9855 1.12336 11.9379 0.677664C10.8903 0.23197 9.76585 0.00243302 8.63 0.00243302C7.49414 0.00243302 6.36965 0.23197 5.32208 0.677664C4.2745 1.12336 3.32479 1.77629 2.52832 2.5984C0.90792 4.27301 0 6.52658 0 8.874C0 11.2214 0.90792 13.475 2.52832 15.1496L16 29L29.4717 15.1496C31.0921 13.475 32 11.2214 32 8.874C32 6.52658 31.0921 4.27301 29.4717 2.5984C28.6754 1.77585 27.7258 1.12247 26.6782 0.676354C25.6306 0.230239 24.506 0.000320274 23.37 3.11211e-06Z" fill="white"/>
</svg>
