<svg width="30" height="30" viewBox="0 0 30 30" fill="none" xmlns="http://www.w3.org/2000/svg">
<path fill-rule="evenodd" clip-rule="evenodd" d="M28.5519 3.27998L25.8274 0.563028C25.0757 -0.187676 23.8555 -0.187676 23.1029 0.563028L19.0161 5.9969C18.3923 6.91611 18.2645 7.96312 19.0161 8.71382L20.6842 10.3771C19.4478 12.0338 17.9634 13.84 16.2926 15.5061C14.403 17.39 12.3015 19.1025 10.4119 20.5092L8.79975 18.9028C8.0481 18.1521 6.99823 18.2789 6.07523 18.9028L0.626249 22.9781C-0.287282 23.6077 -0.126349 24.9444 0.626249 25.6951L3.35074 28.4111C4.85594 29.9125 6.8127 29.4316 8.79975 28.4111C8.79975 28.4111 14.8139 25.0447 19.9628 19.91C24.8059 15.0801 28.5519 8.71382 28.5519 8.71382C29.3329 6.57152 30.0571 4.78044 28.5519 3.27998Z" fill="black"/>
</svg>
