<svg width="36" height="29" viewBox="0 0 36 29" fill="none" xmlns="http://www.w3.org/2000/svg">
<path d="M35.9217 6.53804L31.7348 20.0553C31.4217 21.018 30.6 21.6597 29.6217 21.6597H13.4609C12.5217 21.6597 11.6217 21.0581 11.3087 20.1757L5.12609 3.20885H1.56522C0.704348 3.20885 0 2.48686 0 1.60443C0 0.721992 0.704348 0 1.56522 0H6.22174C6.88696 0 7.47391 0.441217 7.7087 1.08299L14.087 18.4509H28.9565L32.2826 7.62102H13.8522C12.9913 7.62102 12.287 6.89903 12.287 6.0166C12.287 5.13416 12.9913 4.41217 13.8522 4.41217H34.4348C34.9435 4.41217 35.413 4.69295 35.687 5.09405C36 5.49516 36.0783 6.05671 35.9217 6.53804ZM14.2435 23.7856C13.5783 23.7856 12.913 24.0664 12.4435 24.5477C11.9739 25.029 11.7 25.7109 11.7 26.3928C11.7 27.0747 11.9739 27.7566 12.4435 28.2379C12.913 28.7192 13.5783 29 14.2435 29C14.9087 29 15.5739 28.7192 16.0435 28.2379C16.513 27.7566 16.787 27.0747 16.787 26.3928C16.787 25.7109 16.513 25.029 16.0435 24.5477C15.5739 24.0664 14.9087 23.7856 14.2435 23.7856ZM28.2913 23.7856C27.6261 23.7856 26.9609 24.0664 26.4913 24.5477C26.0217 25.029 25.7478 25.7109 25.7478 26.3928C25.7478 27.0747 26.0217 27.7566 26.4913 28.2379C26.9609 28.7192 27.6261 29 28.2913 29C28.9565 29 29.6217 28.7192 30.0913 28.2379C30.5609 27.7566 30.8348 27.0747 30.8348 26.3928C30.8348 25.7109 30.5609 25.029 30.0913 24.5477C29.6217 24.0664 28.9565 23.7856 28.2913 23.7856Z" fill="white"/>
</svg>
