<svg width="23" height="19" viewBox="0 0 23 19" fill="none" xmlns="http://www.w3.org/2000/svg">
<path d="M22.95 4.28354L20.275 13.1397C20.075 13.7704 19.55 14.1909 18.925 14.1909H8.6C8 14.1909 7.425 13.7967 7.225 13.2185L3.275 2.10235H1C0.45 2.10235 0 1.62932 0 1.05118C0 0.473029 0.45 0 1 0H3.975C4.4 0 4.775 0.289073 4.925 0.709543L9 12.0885H18.5L20.625 4.99308H8.85C8.3 4.99308 7.85 4.52006 7.85 3.94191C7.85 3.36376 8.3 2.89073 8.85 2.89073H22C22.325 2.89073 22.625 3.07469 22.8 3.33748C23 3.60028 23.05 3.96819 22.95 4.28354ZM9.1 15.5837C8.675 15.5837 8.25 15.7676 7.95 16.083C7.65 16.3983 7.475 16.8451 7.475 17.2918C7.475 17.7386 7.65 18.1853 7.95 18.5007C8.25 18.816 8.675 19 9.1 19C9.525 19 9.95 18.816 10.25 18.5007C10.55 18.1853 10.725 17.7386 10.725 17.2918C10.725 16.8451 10.55 16.3983 10.25 16.083C9.95 15.7676 9.525 15.5837 9.1 15.5837ZM18.075 15.5837C17.65 15.5837 17.225 15.7676 16.925 16.083C16.625 16.3983 16.45 16.8451 16.45 17.2918C16.45 17.7386 16.625 18.1853 16.925 18.5007C17.225 18.816 17.65 19 18.075 19C18.5 19 18.925 18.816 19.225 18.5007C19.525 18.1853 19.7 17.7386 19.7 17.2918C19.7 16.8451 19.525 16.3983 19.225 16.083C18.925 15.7676 18.5 15.5837 18.075 15.5837Z" fill="white"/>
</svg>
