<svg width="30" height="21" viewBox="0 0 30 21" fill="none" xmlns="http://www.w3.org/2000/svg">
<path d="M29.9875 2.79563V2.625C29.9875 2.38875 29.975 2.16562 29.9125 1.92937C29.6125 0.7875 28.625 0 27.5 0H2.5C1.375 0 0.3875 0.7875 0.0875 1.92937C0.025 2.16562 0 2.38875 0 2.625V18.375C0 19.8188 1.125 21 2.5 21H27.5C28.875 21 30 19.8188 30 18.375L29.9875 2.79563ZM27.4875 2.625L15 10.5L2.5 2.625H27.4875ZM2.5 18.375V5.68313L13.7125 12.7444C14.1125 12.9937 14.55 13.125 15 13.125C15.45 13.125 15.8875 12.9937 16.2875 12.7444L27.4875 5.68313L27.5 18.375H2.5Z" fill="black"/>
</svg>
