<svg width="30" height="18" viewBox="0 0 30 18" fill="none" xmlns="http://www.w3.org/2000/svg">
<path d="M10 16.7143C10 16.3733 10.1317 16.0463 10.3661 15.8051C10.6005 15.564 10.9185 15.4286 11.25 15.4286H18.75C19.0815 15.4286 19.3995 15.564 19.6339 15.8051C19.8683 16.0463 20 16.3733 20 16.7143C20 17.0553 19.8683 17.3823 19.6339 17.6234C19.3995 17.8645 19.0815 18 18.75 18H11.25C10.9185 18 10.6005 17.8645 10.3661 17.6234C10.1317 17.3823 10 17.0553 10 16.7143ZM5 9C5 8.65901 5.1317 8.33198 5.36612 8.09086C5.60054 7.84974 5.91848 7.71429 6.25 7.71429H23.75C24.0815 7.71429 24.3995 7.84974 24.6339 8.09086C24.8683 8.33198 25 8.65901 25 9C25 9.34099 24.8683 9.66802 24.6339 9.90914C24.3995 10.1503 24.0815 10.2857 23.75 10.2857H6.25C5.91848 10.2857 5.60054 10.1503 5.36612 9.90914C5.1317 9.66802 5 9.34099 5 9ZM0 1.28571C0 0.944722 0.131696 0.617695 0.366117 0.376577C0.600537 0.135459 0.918479 0 1.25 0H28.75C29.0815 0 29.3995 0.135459 29.6339 0.376577C29.8683 0.617695 30 0.944722 30 1.28571C30 1.62671 29.8683 1.95373 29.6339 2.19485C29.3995 2.43597 29.0815 2.57143 28.75 2.57143H1.25C0.918479 2.57143 0.600537 2.43597 0.366117 2.19485C0.131696 1.95373 0 1.62671 0 1.28571Z" fill="black"/>
</svg>
