<svg width="194" height="62" viewBox="0 0 194 62" fill="none" xmlns="http://www.w3.org/2000/svg">
<path d="M14.9698 43.5832L0.338074 35.1405L14.9698 26.6891L29.5929 35.1405L14.9698 43.5832Z" fill="#1C54A0"/>
<path d="M14.6318 61.1535L0 52.7021V35.8167L14.6318 44.2594V61.1535Z" fill="#1C54A0"/>
<path d="M29.931 52.7021L15.3079 61.1535V44.2594L29.931 35.8167V52.7021Z" fill="#1C54A0"/>
<path d="M30.2777 16.8941L15.6459 8.44273L30.269 0L44.9008 8.44273L30.2777 16.8941Z" fill="#FCC00E"/>
<path d="M29.9396 34.4644L15.3079 26.013V9.1189L29.9396 17.5703V34.4644Z" fill="#FCC00E"/>
<path d="M45.2388 26.013L30.6071 34.4644V17.5703L45.2388 9.1189V26.013Z" fill="#FCC00E"/>
<path d="M45.5769 43.5832L30.9451 35.1405L45.5769 26.6891L60.2086 35.1405L45.5769 43.5832Z" fill="#2E7E33"/>
<path d="M45.2388 61.1535L30.6071 52.7021V35.8167L45.2388 44.2594V61.1535Z" fill="#2E7E33"/>
<path d="M60.5467 52.7021L45.9149 61.1535V44.2594L60.5467 35.8167V52.7021Z" fill="#2E7E33"/>
<path d="M75.6032 32.3753V17.4142H84.54V19.0958H77.5102V23.6986H80.9428C81.9569 23.6986 82.8411 23.8719 83.5865 24.2186C84.332 24.5654 84.9041 25.0508 85.3115 25.6922C85.7189 26.325 85.9183 27.0878 85.9183 27.9633C85.9183 28.8387 85.7189 29.6535 85.3115 30.3123C84.9128 30.9711 84.3407 31.4912 83.5952 31.8466C82.8497 32.2106 81.9656 32.3927 80.9428 32.3927H75.6032V32.3753ZM77.5102 30.7111H80.9081C81.9136 30.7111 82.685 30.4683 83.2311 29.9916C83.7772 29.5062 84.0459 28.8214 84.0459 27.9286C84.0459 27.1051 83.7772 26.4724 83.2311 26.0216C82.6937 25.5709 81.9136 25.3455 80.9081 25.3455H77.5102V30.7111Z" fill="white"/>
<path d="M88.8914 32.3753V17.4142H90.7984V23.9326H92.8961L97.7762 17.4142H100.091L94.517 24.6694L100.333 32.384H98.0363L92.9828 25.5969H90.8071V32.384H88.9001L88.8914 32.3753Z" fill="white"/>
<path d="M106.696 24.08V25.7442H100.125V24.08H106.696Z" fill="white"/>
<path d="M116.005 32.5747C114.722 32.5747 113.587 32.2627 112.581 31.6472C111.585 31.0318 110.796 30.1477 110.224 28.9948C109.652 27.8419 109.365 26.481 109.365 24.9035C109.365 23.3259 109.652 21.9476 110.224 20.8034C110.796 19.6592 111.585 18.7664 112.581 18.151C113.587 17.5269 114.722 17.2148 116.005 17.2148C116.759 17.2148 117.479 17.3275 118.146 17.5442C118.814 17.7609 119.42 18.0903 119.958 18.5151C120.495 18.9398 120.937 19.4599 121.301 20.058C121.666 20.6561 121.908 21.3495 122.038 22.121H120.131C120.027 21.6096 119.845 21.1502 119.585 20.7688C119.325 20.3787 119.013 20.0493 118.64 19.7806C118.268 19.5119 117.86 19.3125 117.409 19.1738C116.959 19.0438 116.491 18.9745 116.005 18.9745C115.104 18.9745 114.298 19.1998 113.578 19.6592C112.859 20.1187 112.278 20.7861 111.862 21.6616C111.437 22.5457 111.229 23.6206 111.229 24.9035C111.229 26.1863 111.446 27.2525 111.871 28.1367C112.295 29.0208 112.867 29.6796 113.596 30.139C114.315 30.5897 115.121 30.8151 116.014 30.8151C116.499 30.8151 116.967 30.7458 117.418 30.6071C117.869 30.4684 118.276 30.269 118.649 30.0003C119.022 29.7316 119.334 29.4109 119.594 29.0121C119.854 28.6221 120.036 28.1713 120.14 27.6599H122.047C121.917 28.4227 121.674 29.1075 121.319 29.7056C120.963 30.3037 120.513 30.8238 119.975 31.2485C119.438 31.6732 118.831 32.0026 118.164 32.228C117.496 32.4534 116.777 32.5661 116.005 32.5661V32.5747Z" fill="white"/>
<path d="M124.153 19.0958V17.4055H135.465V19.0958H130.776V32.3753H128.869V19.0958H124.162H124.153Z" fill="white"/>
<path d="M139.036 32.3753V30.6764H140.085C140.579 30.6764 140.978 30.5984 141.281 30.4423C141.585 30.2863 141.81 30.0263 141.958 29.6535L142.235 28.9688L136.973 17.4055H139.062L141.03 21.8609C141.385 22.6671 141.689 23.4038 141.94 24.0886C142.192 24.7734 142.426 25.4322 142.642 26.0736C142.85 26.7151 143.076 27.3738 143.301 28.05H142.772C143.084 27.1485 143.414 26.2036 143.761 25.2068C144.107 24.21 144.523 23.0918 145.017 21.8523L146.803 17.3969H148.849L143.674 29.8876C143.474 30.373 143.24 30.7977 142.972 31.1705C142.703 31.5432 142.339 31.8292 141.88 32.0459C141.42 32.254 140.813 32.3667 140.042 32.3667H139.028L139.036 32.3753Z" fill="white"/>
<path d="M150.357 35.5912V30.7024H151.579C151.831 30.4857 152.056 30.1996 152.281 29.8442C152.498 29.4889 152.697 29.0468 152.879 28.5094C153.061 27.9719 153.217 27.3132 153.356 26.5244C153.495 25.7356 153.607 24.8081 153.694 23.7246L154.206 17.4142H163.576V30.7024H165.24V35.5912H163.402V32.3753H152.186V35.5912H150.357ZM153.781 30.7024H161.66V19.0958H155.948L155.566 23.7246C155.48 24.7734 155.358 25.7616 155.202 26.6804C155.046 27.5992 154.856 28.4053 154.622 29.0988C154.388 29.7922 154.11 30.3297 153.772 30.7111L153.781 30.7024Z" fill="white"/>
<path d="M179.915 32.3753H178V23.8372C178 23.5685 178 23.2045 178.026 22.7364C178.052 22.2683 178.069 21.7222 178.095 21.0895C178.13 20.4567 178.156 19.7719 178.182 19.0265H178.537C178.06 19.8673 177.661 20.578 177.341 21.1501C177.02 21.7222 176.734 22.2163 176.491 22.6324C176.24 23.0485 175.989 23.4559 175.737 23.8546L170.311 32.3753H168.04V17.4142H169.947V26.5937C169.947 26.9058 169.947 27.2785 169.938 27.7206C169.938 28.1626 169.912 28.648 169.886 29.1681C169.86 29.6969 169.817 30.243 169.756 30.8237H169.487C169.747 30.269 170.008 29.7489 170.268 29.2548C170.528 28.7694 170.77 28.3273 171.004 27.9373C171.238 27.5472 171.429 27.2351 171.585 26.9838L177.67 17.4142H179.924V32.3753H179.915Z" fill="white"/>
<path d="M184.553 32.3753H182.342L186.018 25.6402H188.167L184.553 32.3753ZM193.151 32.3753H191.244V19.0871H188.133C187.344 19.0871 186.702 19.2085 186.217 19.4512C185.731 19.6939 185.376 20.0406 185.159 20.474C184.943 20.9161 184.83 21.4275 184.83 22.0256C184.83 22.6237 184.943 23.1091 185.159 23.5339C185.376 23.9586 185.731 24.288 186.217 24.522C186.702 24.7561 187.335 24.8688 188.115 24.8688H192.094V26.5677H188.028C186.867 26.5677 185.913 26.377 185.159 25.9869C184.405 25.5969 183.85 25.0681 183.478 24.3833C183.105 23.6986 182.932 22.9098 182.932 22.0256C182.932 21.1415 183.114 20.344 183.478 19.6419C183.842 18.9398 184.405 18.3937 185.159 18.0036C185.913 17.6136 186.876 17.4055 188.037 17.4055H193.16V32.3667L193.151 32.3753Z" fill="white"/>
<path d="M78.5937 40.1246V44.1553H77.9609V40.7227H76.1146V44.1553H75.4818V40.1246H78.5937Z" fill="white"/>
<path d="M79.6945 45.6636V40.1246H80.3013V40.7747H80.3707C80.414 40.7054 80.4747 40.6101 80.5527 40.506C80.6307 40.402 80.7434 40.298 80.8994 40.2113C81.0468 40.1246 81.2548 40.0813 81.5062 40.0813C81.8356 40.0813 82.1216 40.168 82.373 40.3327C82.6244 40.4974 82.8151 40.7401 82.9624 41.0521C83.1011 41.3642 83.1705 41.7282 83.1705 42.1616C83.1705 42.595 83.1011 42.9591 82.9624 43.2712C82.8237 43.5832 82.6244 43.8259 82.3817 43.9993C82.1303 44.1726 81.8442 44.2507 81.5148 44.2507C81.2635 44.2507 81.0641 44.2073 80.9167 44.1206C80.7607 44.034 80.648 43.9299 80.57 43.8172C80.492 43.7046 80.4227 43.6092 80.3793 43.5399H80.3273V45.6722H79.6945V45.6636ZM81.4195 43.6612C81.6622 43.6612 81.8702 43.5919 82.0349 43.4619C82.1996 43.3232 82.321 43.1411 82.4077 42.9158C82.4943 42.6904 82.529 42.4304 82.529 42.153C82.529 41.8756 82.4857 41.6242 82.4077 41.3988C82.3297 41.1735 82.1996 41.0001 82.0349 40.8614C81.8702 40.7227 81.6622 40.6621 81.4195 40.6621C81.1768 40.6621 80.9774 40.7227 80.8127 40.8528C80.648 40.9828 80.5267 41.1475 80.44 41.3728C80.3533 41.5982 80.3187 41.8583 80.3187 42.153C80.3187 42.4477 80.362 42.7164 80.4487 42.9418C80.5354 43.1671 80.6567 43.3492 80.8214 43.4792C80.9861 43.6092 81.1855 43.6699 81.4195 43.6699V43.6612Z" fill="white"/>
<path d="M85.6842 44.242C85.3288 44.242 85.0168 44.1553 84.7481 43.9819C84.4793 43.8086 84.2713 43.5659 84.124 43.2538C83.9766 42.9418 83.8986 42.5777 83.8986 42.1616C83.8986 41.7456 83.9766 41.3728 84.124 41.0608C84.2713 40.7487 84.4793 40.506 84.7481 40.3327C85.0168 40.1593 85.3288 40.0726 85.6842 40.0726C86.0396 40.0726 86.3517 40.1593 86.6204 40.3327C86.8891 40.506 87.0971 40.7487 87.2445 41.0608C87.3918 41.3728 87.4699 41.7456 87.4699 42.1616C87.4699 42.5777 87.3918 42.9418 87.2445 43.2538C87.0971 43.5659 86.8891 43.8086 86.6204 43.9819C86.3517 44.1553 86.0396 44.242 85.6842 44.242ZM85.6842 43.6612C85.9443 43.6612 86.1696 43.5919 86.3343 43.4532C86.5077 43.3145 86.629 43.1325 86.7157 42.9071C86.8024 42.6817 86.8371 42.4304 86.8371 42.1703C86.8371 41.9103 86.7937 41.6589 86.7157 41.4249C86.6377 41.1995 86.5077 41.0088 86.3343 40.8701C86.161 40.7314 85.9443 40.6621 85.6842 40.6621C85.4242 40.6621 85.2075 40.7314 85.0428 40.8701C84.8781 41.0088 84.7481 41.1995 84.6701 41.4249C84.592 41.6502 84.5487 41.9016 84.5487 42.1703C84.5487 42.439 84.592 42.6817 84.6701 42.9071C84.7481 43.1325 84.8781 43.3145 85.0428 43.4532C85.2075 43.5919 85.4242 43.6612 85.6842 43.6612Z" fill="white"/>
<path d="M89.9836 44.242C89.6282 44.242 89.3161 44.1553 89.0474 43.9819C88.7787 43.8086 88.5707 43.5659 88.4233 43.2538C88.276 42.9418 88.1979 42.5777 88.1979 42.1616C88.1979 41.7456 88.276 41.3728 88.4233 41.0608C88.5707 40.7487 88.7787 40.506 89.0474 40.3327C89.3161 40.1593 89.6282 40.0726 89.9836 40.0726C90.1743 40.0726 90.3476 40.0986 90.521 40.1506C90.6944 40.2027 90.8417 40.272 90.9804 40.3673C91.1191 40.4627 91.2404 40.5754 91.3358 40.7141C91.4311 40.8528 91.5178 41.0088 91.5698 41.1821L90.9631 41.3555C90.9371 41.2515 90.8937 41.1561 90.833 41.0695C90.7724 40.9828 90.703 40.9048 90.625 40.8441C90.547 40.7834 90.443 40.7314 90.339 40.6967C90.2349 40.6621 90.1136 40.6447 89.9836 40.6447C89.7235 40.6447 89.5068 40.7141 89.3421 40.8528C89.1774 40.9915 89.0474 41.1821 88.9694 41.4075C88.8914 41.6329 88.848 41.8843 88.848 42.153C88.848 42.4217 88.8914 42.6644 88.9694 42.8898C89.0474 43.1151 89.1774 43.2972 89.3421 43.4359C89.5068 43.5745 89.7235 43.6439 89.9836 43.6439C90.1136 43.6439 90.2349 43.6266 90.3476 43.5919C90.4603 43.5572 90.5557 43.5052 90.6423 43.4359C90.729 43.3665 90.7984 43.2885 90.859 43.2018C90.9197 43.1065 90.9631 43.0111 90.9891 42.8984L91.5958 43.0718C91.5438 43.2538 91.4658 43.4099 91.3618 43.5485C91.2578 43.6872 91.1364 43.8086 90.9977 43.9126C90.859 44.0166 90.703 44.086 90.5297 44.138C90.3563 44.19 90.1743 44.216 89.9836 44.216V44.242Z" fill="white"/>
<path d="M93.2948 44.1553V40.7054H92.0032V40.1246H95.2018V40.7054H93.9189V44.1553H93.2861H93.2948Z" fill="white"/>
<path d="M96.4327 41.5722H97.5595C97.8716 41.5722 98.1316 41.6242 98.3396 41.7369C98.5563 41.8496 98.7124 41.9969 98.8251 42.1876C98.9377 42.3783 98.9897 42.6037 98.9897 42.8464C98.9897 43.0891 98.9377 43.3058 98.8251 43.5052C98.7124 43.7046 98.5563 43.8606 98.3396 43.9733C98.1316 44.086 97.8629 44.1466 97.5595 44.1466H95.9039V40.116H96.5367V43.5485H97.5595C97.7935 43.5485 97.9842 43.4879 98.1316 43.3578C98.279 43.2278 98.357 43.0718 98.357 42.8724C98.357 42.6731 98.279 42.491 98.1316 42.361C97.9842 42.231 97.7935 42.1616 97.5595 42.1616H96.4327V41.5635V41.5722ZM99.4492 44.1553V40.1246H100.082V44.1553H99.4492Z" fill="white"/>
<path d="M102.83 44.242C102.448 44.242 102.128 44.1553 101.85 43.9819C101.573 43.8086 101.365 43.5659 101.217 43.2538C101.07 42.9418 100.992 42.5864 100.992 42.1703C100.992 41.7542 101.061 41.3902 101.209 41.0781C101.356 40.7661 101.555 40.5147 101.824 40.3413C102.093 40.168 102.396 40.0726 102.752 40.0726C102.96 40.0726 103.168 40.1073 103.367 40.1766C103.566 40.246 103.749 40.3587 103.913 40.5234C104.078 40.6794 104.208 40.8874 104.303 41.1475C104.399 41.4075 104.451 41.7196 104.451 42.0923V42.361H101.408V41.8149H104.113L103.818 42.0143C103.818 41.7542 103.775 41.5115 103.697 41.3122C103.618 41.1041 103.497 40.9481 103.341 40.8268C103.185 40.7141 102.986 40.6534 102.752 40.6534C102.518 40.6534 102.31 40.7141 102.145 40.8354C101.98 40.9568 101.85 41.1128 101.764 41.3035C101.677 41.4942 101.634 41.7022 101.634 41.9189V42.283C101.634 42.5777 101.686 42.8378 101.781 43.0458C101.885 43.2538 102.024 43.4099 102.206 43.5139C102.388 43.6179 102.596 43.6786 102.838 43.6786C102.994 43.6786 103.133 43.6526 103.254 43.6092C103.384 43.5659 103.488 43.4965 103.584 43.4012C103.671 43.3058 103.749 43.1931 103.792 43.0545L104.399 43.2278C104.338 43.4272 104.234 43.6092 104.087 43.7652C103.939 43.9213 103.766 44.0426 103.549 44.1293C103.332 44.216 103.098 44.2593 102.83 44.2593V44.242Z" fill="white"/>
<path d="M107.38 45.6636V40.1246H107.987V40.7747H108.057C108.1 40.7054 108.161 40.6101 108.239 40.506C108.317 40.3933 108.429 40.298 108.585 40.2113C108.741 40.1246 108.941 40.0813 109.192 40.0813C109.521 40.0813 109.808 40.168 110.059 40.3327C110.31 40.4974 110.501 40.7401 110.648 41.0521C110.787 41.3642 110.856 41.7282 110.856 42.1616C110.856 42.595 110.787 42.9591 110.648 43.2712C110.51 43.5832 110.31 43.8259 110.068 43.9993C109.816 44.1726 109.53 44.2507 109.201 44.2507C108.949 44.2507 108.75 44.2073 108.603 44.1206C108.455 44.034 108.334 43.9299 108.256 43.8172C108.178 43.7046 108.109 43.6092 108.065 43.5399H108.013V45.6722H107.38V45.6636ZM109.105 43.6612C109.348 43.6612 109.556 43.5919 109.721 43.4619C109.886 43.3232 110.007 43.1411 110.094 42.9158C110.18 42.6904 110.215 42.4304 110.215 42.153C110.215 41.8756 110.172 41.6242 110.094 41.3988C110.016 41.1735 109.886 41.0001 109.721 40.8614C109.556 40.7314 109.348 40.6621 109.105 40.6621C108.863 40.6621 108.663 40.7227 108.499 40.8528C108.334 40.9741 108.213 41.1475 108.126 41.3728C108.039 41.5982 108.005 41.8583 108.005 42.153C108.005 42.4477 108.048 42.7164 108.126 42.9418C108.213 43.1671 108.334 43.3492 108.499 43.4792C108.663 43.6092 108.863 43.6699 109.097 43.6699L109.105 43.6612Z" fill="white"/>
<path d="M113.422 44.242C113.041 44.242 112.72 44.1553 112.443 43.9819C112.165 43.8086 111.957 43.5659 111.81 43.2538C111.662 42.9418 111.584 42.5864 111.584 42.1703C111.584 41.7542 111.654 41.3902 111.801 41.0781C111.949 40.7661 112.148 40.5147 112.417 40.3413C112.685 40.168 112.989 40.0726 113.344 40.0726C113.552 40.0726 113.76 40.1073 113.96 40.1766C114.159 40.246 114.341 40.3587 114.506 40.5234C114.67 40.6794 114.8 40.8874 114.896 41.1475C114.991 41.4075 115.043 41.7196 115.043 42.0923V42.361H112.001V41.8149H114.705L114.41 42.0143C114.41 41.7542 114.367 41.5115 114.289 41.3122C114.211 41.1041 114.09 40.9481 113.934 40.8268C113.778 40.7141 113.578 40.6534 113.344 40.6534C113.11 40.6534 112.911 40.7141 112.737 40.8354C112.573 40.9568 112.443 41.1128 112.356 41.3035C112.269 41.4942 112.226 41.7022 112.226 41.9189V42.283C112.226 42.5777 112.278 42.8378 112.373 43.0458C112.477 43.2538 112.616 43.4099 112.798 43.5139C112.98 43.6179 113.188 43.6786 113.431 43.6786C113.587 43.6786 113.725 43.6526 113.847 43.6092C113.977 43.5659 114.081 43.4965 114.176 43.4012C114.272 43.3058 114.341 43.1931 114.384 43.0545L114.991 43.2278C114.93 43.4272 114.826 43.6092 114.679 43.7652C114.532 43.9213 114.358 44.0426 114.142 44.1293C113.925 44.216 113.691 44.2593 113.413 44.2593L113.422 44.242Z" fill="white"/>
<path d="M115.962 40.1246H116.595V43.5572H118.042V40.1246H118.675V43.5572H120.123V40.1246H120.755V44.1553H115.962V40.1246Z" fill="white"/>
<path d="M123.503 44.242C123.122 44.242 122.801 44.1553 122.524 43.9819C122.246 43.8086 122.038 43.5659 121.891 43.2538C121.743 42.9418 121.665 42.5864 121.665 42.1703C121.665 41.7542 121.735 41.3902 121.882 41.0781C122.03 40.7661 122.229 40.5147 122.498 40.3413C122.766 40.168 123.07 40.0726 123.425 40.0726C123.633 40.0726 123.841 40.1073 124.041 40.1766C124.24 40.246 124.422 40.3587 124.587 40.5234C124.751 40.6794 124.881 40.8874 124.977 41.1475C125.072 41.4075 125.124 41.7196 125.124 42.0923V42.361H122.082V41.8149H124.786L124.491 42.0143C124.491 41.7542 124.448 41.5115 124.37 41.3122C124.292 41.1041 124.171 40.9481 124.015 40.8268C123.859 40.7141 123.659 40.6534 123.425 40.6534C123.191 40.6534 122.992 40.7141 122.818 40.8354C122.654 40.9568 122.524 41.1128 122.437 41.3035C122.35 41.4942 122.307 41.7022 122.307 41.9189V42.283C122.307 42.5777 122.359 42.8378 122.454 43.0458C122.558 43.2538 122.697 43.4099 122.879 43.5139C123.061 43.6179 123.269 43.6786 123.512 43.6786C123.668 43.6786 123.806 43.6526 123.928 43.6092C124.058 43.5659 124.162 43.4965 124.257 43.4012C124.353 43.3058 124.422 43.1931 124.465 43.0545L125.072 43.2278C125.011 43.4272 124.907 43.6092 124.76 43.7652C124.613 43.9213 124.439 44.0426 124.223 44.1293C124.006 44.216 123.772 44.2593 123.494 44.2593L123.503 44.242Z" fill="white"/>
<path d="M126.676 40.1246V44.1553H126.043V40.1246H126.676ZM128.669 41.7889V42.387H126.52V41.7889H128.669ZM129.155 40.1246V44.1553H128.522V40.1246H129.155Z" fill="white"/>
<path d="M133.402 44.1553H132.769V41.2515H132.726L130.871 44.1553H130.273V40.1246H130.906V43.0458H130.949L132.813 40.1246H133.411V44.1553H133.402Z" fill="white"/>
<path d="M134.841 44.1553H134.113L135.205 42.335H135.907L134.832 44.1553H134.841ZM137.372 44.1553H136.748V40.6881H135.864C135.526 40.6881 135.283 40.7487 135.136 40.8788C134.988 41.0001 134.919 41.1821 134.919 41.3988C134.919 41.6155 134.988 41.7889 135.136 41.9103C135.283 42.0316 135.526 42.0923 135.855 42.0923H137.017V42.6384H135.812C135.292 42.6384 134.91 42.5257 134.659 42.3003C134.408 42.075 134.286 41.7716 134.286 41.3988C134.286 41.0261 134.408 40.7141 134.659 40.48C134.91 40.246 135.292 40.1246 135.812 40.1246H137.372V44.1553Z" fill="white"/>
<path d="M142.096 44.242C141.741 44.242 141.429 44.1553 141.16 43.9819C140.891 43.8086 140.683 43.5659 140.536 43.2538C140.389 42.9418 140.311 42.5777 140.311 42.1616C140.311 41.7456 140.389 41.3728 140.536 41.0608C140.683 40.7487 140.891 40.506 141.16 40.3327C141.429 40.1593 141.741 40.0726 142.096 40.0726C142.287 40.0726 142.46 40.0986 142.634 40.1506C142.807 40.2027 142.954 40.272 143.093 40.3673C143.232 40.4627 143.353 40.5754 143.448 40.7141C143.552 40.8528 143.622 41.0088 143.682 41.1821L143.076 41.3555C143.05 41.2515 143.006 41.1561 142.946 41.0695C142.885 40.9828 142.816 40.9048 142.738 40.8441C142.66 40.7834 142.556 40.7314 142.452 40.6967C142.348 40.6621 142.226 40.6447 142.096 40.6447C141.836 40.6447 141.619 40.7141 141.455 40.8528C141.29 40.9915 141.16 41.1821 141.082 41.4075C141.004 41.6329 140.961 41.8843 140.961 42.153C140.961 42.4217 141.004 42.6644 141.082 42.8898C141.16 43.1151 141.29 43.2972 141.455 43.4359C141.619 43.5745 141.836 43.6439 142.096 43.6439C142.226 43.6439 142.348 43.6266 142.46 43.5919C142.573 43.5572 142.668 43.5052 142.755 43.4359C142.842 43.3665 142.911 43.2885 142.972 43.2018C143.032 43.1151 143.076 43.0111 143.102 42.8984L143.708 43.0718C143.656 43.2538 143.578 43.4099 143.474 43.5485C143.37 43.6872 143.249 43.8086 143.11 43.9126C142.972 44.0166 142.816 44.086 142.642 44.138C142.469 44.19 142.287 44.216 142.096 44.216V44.242Z" fill="white"/>
<path d="M144.116 44.1553V43.5572H144.255C144.367 43.5572 144.463 43.5312 144.541 43.4879C144.619 43.4445 144.679 43.3578 144.731 43.2451C144.783 43.1238 144.818 42.9591 144.844 42.7511C144.87 42.5344 144.896 42.2657 144.905 41.9276L144.974 40.1333H147.618V44.164H146.985V40.7314H145.581L145.52 42.153C145.503 42.595 145.451 42.9678 145.381 43.2712C145.303 43.5659 145.182 43.7912 145.017 43.9473C144.853 44.1033 144.627 44.1726 144.333 44.1726H144.116V44.1553Z" fill="white"/>
<path d="M150.314 44.242C149.958 44.242 149.646 44.1553 149.377 43.9819C149.109 43.8086 148.901 43.5659 148.753 43.2538C148.606 42.9418 148.528 42.5777 148.528 42.1616C148.528 41.7456 148.606 41.3728 148.753 41.0608C148.901 40.7487 149.109 40.506 149.377 40.3327C149.646 40.1593 149.958 40.0726 150.314 40.0726C150.669 40.0726 150.981 40.1593 151.25 40.3327C151.518 40.506 151.726 40.7487 151.874 41.0608C152.021 41.3728 152.099 41.7456 152.099 42.1616C152.099 42.5777 152.021 42.9418 151.874 43.2538C151.726 43.5659 151.518 43.8086 151.25 43.9819C150.981 44.1553 150.669 44.242 150.314 44.242ZM150.314 43.6612C150.574 43.6612 150.799 43.5919 150.964 43.4532C151.137 43.3145 151.258 43.1325 151.345 42.9071C151.423 42.6817 151.466 42.4304 151.466 42.1703C151.466 41.9103 151.423 41.6589 151.345 41.4249C151.267 41.1995 151.137 41.0088 150.964 40.8701C150.79 40.7314 150.574 40.6621 150.314 40.6621C150.054 40.6621 149.837 40.7314 149.672 40.8701C149.507 41.0088 149.377 41.1995 149.299 41.4249C149.221 41.6502 149.178 41.9016 149.178 42.1703C149.178 42.439 149.221 42.6817 149.299 42.9071C149.377 43.1325 149.507 43.3145 149.672 43.4532C149.837 43.5919 150.054 43.6612 150.314 43.6612Z" fill="white"/>
<path d="M152.541 44.1553L154.11 42.101L152.559 40.1246H153.304L154.596 41.8409H154.908V40.1246H155.54V41.8409H155.844L157.127 40.1246H157.881L156.329 42.101L157.898 44.1553H157.135L155.835 42.439H155.54V44.1553H154.908V42.439H154.613L153.304 44.1553H152.541Z" fill="white"/>
<path d="M159.302 40.1246V44.1553H158.67V40.1246H159.302ZM161.296 41.7889V42.387H159.146V41.7889H161.296ZM161.781 40.1246V44.1553H161.149V40.1246H161.781Z" fill="white"/>
<path d="M163.428 41.5722H164.555C164.867 41.5722 165.127 41.6242 165.335 41.7369C165.552 41.8496 165.708 41.9969 165.821 42.1876C165.934 42.3783 165.986 42.6037 165.986 42.8464C165.986 43.0891 165.934 43.3058 165.821 43.5052C165.708 43.7046 165.552 43.8606 165.335 43.9733C165.119 44.086 164.859 44.1466 164.555 44.1466H162.9V40.116H163.532V43.5485H164.555C164.789 43.5485 164.98 43.4879 165.127 43.3578C165.275 43.2278 165.353 43.0718 165.353 42.8724C165.353 42.6731 165.275 42.491 165.127 42.361C164.98 42.231 164.789 42.1616 164.555 42.1616H163.428V41.5635V41.5722ZM166.445 44.1553V40.1246H167.078V44.1553H166.445Z" fill="white"/>
<path d="M167.849 44.1553L169.392 41.8409V42.335L167.927 40.1246H168.664L169.149 40.9048C169.271 41.1041 169.383 41.2948 169.479 41.4682C169.574 41.6416 169.669 41.8149 169.765 41.9796H169.435C169.539 41.8149 169.626 41.6502 169.713 41.4682C169.799 41.2948 169.903 41.1041 170.033 40.9048L170.528 40.1246H171.247L169.782 42.361V41.8843L171.316 44.1553H170.588L170.016 43.2538C169.895 43.0545 169.782 42.8724 169.695 42.7077C169.609 42.5344 169.513 42.3783 169.418 42.2223H169.747C169.652 42.3783 169.565 42.543 169.479 42.7077C169.401 42.8811 169.297 43.0631 169.167 43.2538L168.586 44.1553H167.858H167.849Z" fill="white"/>
<path d="M175.321 44.2073C175.061 44.2073 174.827 44.164 174.61 44.0773C174.394 43.9906 174.22 43.8693 174.09 43.7132C173.96 43.5572 173.891 43.3752 173.882 43.1671H174.524C174.532 43.3058 174.619 43.4185 174.775 43.5139C174.931 43.6092 175.113 43.6526 175.321 43.6526C175.555 43.6526 175.746 43.5919 175.893 43.4705C176.04 43.3492 176.11 43.1931 176.11 43.0111C176.11 42.8118 176.032 42.6557 175.876 42.5344C175.72 42.413 175.503 42.3523 175.234 42.3523H174.983V41.8669H175.234C175.46 41.8669 175.642 41.8063 175.789 41.6936C175.936 41.5809 176.006 41.4249 176.006 41.2342C176.006 41.0521 175.945 40.9048 175.824 40.7921C175.702 40.6794 175.538 40.6187 175.338 40.6187C175.139 40.6187 174.966 40.6707 174.818 40.7661C174.671 40.8701 174.584 41.0001 174.584 41.1648H173.977C173.977 40.9481 174.047 40.7574 174.168 40.5927C174.29 40.428 174.463 40.3067 174.662 40.2113C174.87 40.1246 175.096 40.0726 175.347 40.0726C175.607 40.0726 175.832 40.1246 176.023 40.22C176.214 40.3153 176.361 40.454 176.465 40.6274C176.569 40.7921 176.621 40.9828 176.621 41.1821C176.621 41.4249 176.552 41.6156 176.405 41.7629C176.257 41.9103 176.084 42.0056 175.876 42.049V42.075C176.171 42.127 176.396 42.231 176.552 42.3957C176.699 42.5604 176.777 42.7771 176.777 43.0198C176.777 43.2452 176.717 43.4445 176.587 43.6179C176.457 43.7912 176.292 43.9299 176.066 44.0253C175.85 44.1206 175.598 44.1726 175.312 44.1726L175.321 44.2073Z" fill="white"/>
<path d="M178.754 44.2507C178.502 44.2507 178.277 44.1986 178.077 44.1033C177.878 44.008 177.713 43.8693 177.592 43.6786C177.471 43.4965 177.41 43.2712 177.41 43.0025C177.41 42.7684 177.453 42.5864 177.54 42.439C177.627 42.2917 177.748 42.179 177.895 42.101C178.043 42.0143 178.208 41.9536 178.39 41.9189C178.572 41.8756 178.754 41.8496 178.936 41.8236C179.17 41.7889 179.36 41.7716 179.508 41.7542C179.655 41.7369 179.768 41.7109 179.837 41.6676C179.906 41.6242 179.941 41.5549 179.941 41.4595V41.4335C179.941 41.2688 179.915 41.1215 179.854 41.0088C179.794 40.8961 179.698 40.8008 179.577 40.7401C179.456 40.6794 179.308 40.6447 179.126 40.6447C178.944 40.6447 178.78 40.6707 178.65 40.7314C178.52 40.7921 178.407 40.8701 178.329 40.9568C178.242 41.0435 178.181 41.1388 178.138 41.2342L177.531 41.0261C177.635 40.7834 177.765 40.5927 177.939 40.454C178.112 40.3153 178.294 40.22 178.502 40.1593C178.71 40.0986 178.91 40.0726 179.109 40.0726C179.239 40.0726 179.386 40.09 179.551 40.1246C179.716 40.1593 179.88 40.22 180.036 40.3153C180.192 40.4107 180.323 40.558 180.418 40.7401C180.513 40.9221 180.574 41.1821 180.574 41.4942V44.1553H179.958V43.6092H179.915C179.872 43.7046 179.802 43.7999 179.698 43.8953C179.603 43.9993 179.473 44.0773 179.317 44.1466C179.161 44.216 178.97 44.2507 178.754 44.2507ZM178.866 43.6786C179.1 43.6786 179.3 43.6352 179.456 43.5399C179.62 43.4445 179.742 43.3232 179.82 43.1758C179.906 43.0285 179.941 42.8724 179.941 42.7077V42.153C179.941 42.153 179.863 42.2137 179.776 42.2397C179.69 42.2657 179.594 42.283 179.482 42.309C179.369 42.3263 179.265 42.3437 179.161 42.361C179.057 42.3697 178.979 42.387 178.918 42.3957C178.762 42.413 178.624 42.4477 178.494 42.491C178.364 42.5344 178.26 42.6037 178.173 42.6991C178.095 42.7857 178.051 42.9071 178.051 43.0631C178.051 43.2018 178.086 43.3145 178.155 43.4099C178.225 43.5052 178.32 43.5745 178.442 43.6266C178.563 43.6786 178.702 43.6959 178.858 43.6959L178.866 43.6786Z" fill="white"/>
<path d="M181.276 45.3168V43.5572H181.597C181.675 43.4705 181.744 43.3838 181.805 43.2798C181.865 43.1758 181.918 43.0631 181.952 42.9244C181.996 42.7857 182.03 42.6124 182.065 42.4217C182.091 42.2223 182.126 41.9883 182.143 41.7109L182.273 40.1333H184.795V43.5659H185.393V45.3255H184.769V44.1726H181.909V45.3255H181.276V45.3168ZM182.316 43.5572H184.18V40.7227H182.854L182.767 41.7022C182.732 42.127 182.68 42.4997 182.611 42.8117C182.55 43.1238 182.446 43.3752 182.316 43.5572Z" fill="white"/>
<path d="M187.179 44.2507C186.928 44.2507 186.702 44.1986 186.503 44.1033C186.304 44.008 186.139 43.8693 186.017 43.6786C185.896 43.4965 185.835 43.2712 185.835 43.0025C185.835 42.7684 185.879 42.5864 185.965 42.439C186.052 42.2917 186.174 42.179 186.321 42.101C186.468 42.0143 186.633 41.9536 186.815 41.9189C186.997 41.8756 187.179 41.8496 187.361 41.8236C187.595 41.7889 187.786 41.7716 187.933 41.7542C188.08 41.7369 188.193 41.7109 188.263 41.6676C188.332 41.6242 188.367 41.5549 188.367 41.4595V41.4335C188.367 41.2688 188.341 41.1215 188.28 41.0088C188.219 40.8961 188.124 40.8008 188.002 40.7401C187.881 40.6794 187.734 40.6447 187.552 40.6447C187.37 40.6447 187.205 40.6707 187.075 40.7314C186.945 40.7921 186.832 40.8701 186.754 40.9568C186.668 41.0435 186.607 41.1388 186.564 41.2342L185.957 41.0261C186.061 40.7834 186.191 40.5927 186.364 40.454C186.538 40.3153 186.72 40.22 186.928 40.1593C187.136 40.0986 187.335 40.0726 187.534 40.0726C187.664 40.0726 187.812 40.09 187.976 40.1246C188.141 40.1593 188.306 40.22 188.462 40.3153C188.618 40.4107 188.748 40.558 188.843 40.7401C188.939 40.9221 188.999 41.1821 188.999 41.4942V44.1553H188.384V43.6092H188.341C188.297 43.7046 188.228 43.7999 188.124 43.8953C188.028 43.9993 187.898 44.0773 187.742 44.1466C187.586 44.216 187.396 44.2507 187.179 44.2507ZM187.292 43.6786C187.526 43.6786 187.725 43.6352 187.881 43.5399C188.046 43.4445 188.167 43.3232 188.245 43.1758C188.332 43.0285 188.367 42.8724 188.367 42.7077V42.153C188.367 42.153 188.289 42.2137 188.202 42.2397C188.115 42.2657 188.02 42.283 187.907 42.309C187.794 42.3263 187.69 42.3437 187.586 42.361C187.482 42.3697 187.404 42.387 187.344 42.3957C187.188 42.413 187.049 42.4477 186.919 42.491C186.789 42.5344 186.685 42.6037 186.598 42.6991C186.52 42.7857 186.477 42.9071 186.477 43.0631C186.477 43.2018 186.512 43.3145 186.581 43.4099C186.65 43.5052 186.746 43.5745 186.867 43.6266C186.988 43.6786 187.127 43.6959 187.283 43.6959L187.292 43.6786Z" fill="white"/>
<path d="M191.6 42.8984C191.149 42.8984 190.785 42.7771 190.516 42.5257C190.248 42.283 190.109 41.9103 190.109 41.4162V40.1246H190.742V41.4162C190.742 41.7196 190.82 41.9449 190.984 42.0836C191.149 42.2223 191.348 42.3003 191.6 42.3003C191.851 42.3003 192.076 42.2743 192.285 42.231C192.493 42.1876 192.692 42.1183 192.9 42.049V42.6471C192.761 42.6991 192.631 42.7424 192.493 42.7771C192.363 42.8117 192.215 42.8464 192.068 42.8638C191.92 42.8811 191.764 42.8984 191.591 42.8984H191.6ZM192.519 44.164V40.1333H193.151V44.164H192.519Z" fill="white"/>
</svg>
