<svg width="270" height="233" viewBox="0 0 270 233" fill="none" xmlns="http://www.w3.org/2000/svg">
<path d="M99.7048 99.9634L66.1451 80.599L99.7048 61.2147L133.264 80.599L99.7048 99.9634Z" fill="#1C54A0"/>
<path d="M98.9294 140.263L65.3698 120.879V82.1498L98.9294 101.514V140.263Z" fill="#1C54A0"/>
<path d="M134.04 120.879L100.48 140.263V101.514L134.04 82.1498V120.879Z" fill="#1C54A0"/>
<path d="M134.815 38.7487L101.255 19.3644L134.815 0L168.355 19.3644L134.815 38.7487Z" fill="#FCC00E"/>
<path d="M134.04 79.0481L100.48 59.6639V20.9152L134.04 40.2994V79.0481Z" fill="#FCC00E"/>
<path d="M169.13 59.6639L135.591 79.0481V40.2994L169.13 20.9152V59.6639Z" fill="#FCC00E"/>
<path d="M169.906 99.9634L136.366 80.599L169.906 61.2147L203.465 80.599L169.906 99.9634Z" fill="#2E7E33"/>
<path d="M169.13 140.263L135.591 120.879V82.1498L169.13 101.514V140.263Z" fill="#2E7E33"/>
<path d="M204.241 120.879L170.681 140.263V101.514L204.241 82.1498V120.879Z" fill="#2E7E33"/>
<path d="M0 202.352V168.037H20.4976V171.894H4.37389V182.451H12.2469C14.573 182.451 16.6009 182.849 18.3107 183.644C20.0205 184.439 21.3327 185.553 22.2671 187.024C23.2015 188.475 23.6588 190.225 23.6588 192.233C23.6588 194.241 23.2015 196.11 22.287 197.621C21.3724 199.132 20.0603 200.324 18.3505 201.14C16.6407 201.975 14.6128 202.392 12.2668 202.392H0V202.352ZM4.37389 198.535H12.1674C14.4736 198.535 16.243 197.978 17.4956 196.885C18.7282 195.772 19.3644 194.201 19.3644 192.153C19.3644 190.264 18.7481 188.813 17.4956 187.779C16.243 186.745 14.4736 186.229 12.1674 186.229H4.37389V198.535Z" fill="white"/>
<path d="M30.4781 202.352V168.037H34.852V182.988H39.6633L50.8564 168.037H56.1648L43.3811 184.678L56.7214 202.372H51.4529L39.8621 186.805H34.8719V202.372H30.498L30.4781 202.352Z" fill="white"/>
<path d="M71.3142 183.326V187.143H56.2442V183.326H71.3142Z" fill="white"/>
<path d="M92.6668 202.81C89.7244 202.81 87.1199 202.094 84.8137 200.682C82.5274 199.271 80.7182 197.243 79.406 194.599C78.0938 191.954 77.4377 188.833 77.4377 185.215C77.4377 181.596 78.0938 178.435 79.406 175.811C80.7182 173.186 82.5274 171.139 84.8137 169.727C87.1199 168.296 89.7244 167.58 92.6668 167.58C94.3965 167.58 96.0467 167.838 97.5775 168.335C99.1084 168.832 100.5 169.588 101.733 170.562C102.965 171.536 103.979 172.729 104.814 174.101C105.649 175.473 106.206 177.063 106.504 178.833H102.13C101.892 177.66 101.474 176.606 100.878 175.731C100.281 174.837 99.5657 174.081 98.7108 173.465C97.8559 172.848 96.9214 172.391 95.8876 172.073C94.8538 171.775 93.7802 171.616 92.6668 171.616C90.5992 171.616 88.7502 172.133 87.1001 173.186C85.4499 174.24 84.1179 175.771 83.1636 177.779C82.1894 179.807 81.7122 182.272 81.7122 185.215C81.7122 188.157 82.2093 190.602 83.1834 192.63C84.1576 194.658 85.4698 196.169 87.1398 197.223C88.79 198.257 90.6389 198.774 92.6867 198.774C93.8001 198.774 94.8737 198.615 95.9075 198.296C96.9413 197.978 97.8757 197.521 98.7306 196.905C99.5855 196.288 100.301 195.553 100.898 194.638C101.494 193.744 101.912 192.71 102.15 191.537H106.524C106.226 193.286 105.669 194.857 104.854 196.229C104.039 197.601 103.005 198.794 101.772 199.768C100.54 200.742 99.1481 201.497 97.6173 202.014C96.0864 202.531 94.4363 202.79 92.6668 202.79V202.81Z" fill="white"/>
<path d="M111.355 171.894V168.017H137.3V171.894H126.545V202.352H122.171V171.894H111.375H111.355Z" fill="white"/>
<path d="M145.491 202.352V198.455H147.897C149.03 198.455 149.945 198.277 150.641 197.919C151.337 197.561 151.853 196.964 152.191 196.109L152.828 194.539L140.76 168.017H145.551L150.064 178.236C150.879 180.085 151.575 181.775 152.152 183.346C152.728 184.916 153.265 186.427 153.762 187.899C154.239 189.37 154.756 190.881 155.273 192.431H154.06C154.776 190.364 155.532 188.197 156.327 185.91C157.122 183.624 158.076 181.059 159.21 178.216L163.305 167.997H167.997L156.128 196.646C155.671 197.76 155.134 198.734 154.518 199.589C153.901 200.444 153.066 201.1 152.013 201.597C150.959 202.074 149.567 202.332 147.798 202.332H145.472L145.491 202.352Z" fill="white"/>
<path d="M171.456 209.728V198.515H174.26C174.836 198.018 175.353 197.362 175.87 196.547C176.367 195.732 176.824 194.718 177.242 193.485C177.659 192.253 178.017 190.742 178.335 188.932C178.654 187.123 178.912 184.996 179.111 182.511L180.284 168.037H201.775V198.515H205.593V209.728H201.378V202.352H175.651V209.728H171.456ZM179.31 198.515H197.382V171.894H184.28L183.405 182.511C183.206 184.916 182.928 187.183 182.57 189.29C182.212 191.398 181.775 193.247 181.238 194.837C180.701 196.428 180.065 197.66 179.29 198.535L179.31 198.515Z" fill="white"/>
<path d="M239.252 202.352H234.858V182.769C234.858 182.153 234.858 181.318 234.918 180.244C234.977 179.171 235.017 177.918 235.077 176.467C235.156 175.015 235.216 173.445 235.276 171.735H236.091C234.997 173.664 234.083 175.294 233.347 176.606C232.611 177.918 231.955 179.051 231.399 180.006C230.822 180.96 230.246 181.894 229.669 182.809L217.223 202.352H212.014V168.037H216.388V189.091C216.388 189.807 216.388 190.662 216.368 191.676C216.368 192.69 216.309 193.803 216.249 194.996C216.189 196.209 216.09 197.461 215.951 198.794H215.335C215.931 197.521 216.527 196.328 217.124 195.195C217.72 194.082 218.277 193.068 218.814 192.173C219.351 191.278 219.788 190.563 220.146 189.986L234.103 168.037H239.272V202.352H239.252Z" fill="white"/>
<path d="M249.888 202.352H244.819L253.248 186.904H258.179L249.888 202.352ZM269.611 202.352H265.237V171.874H258.099C256.29 171.874 254.819 172.153 253.706 172.709C252.592 173.266 251.777 174.061 251.28 175.055C250.783 176.069 250.525 177.242 250.525 178.614C250.525 179.986 250.783 181.099 251.28 182.073C251.777 183.047 252.592 183.803 253.706 184.34C254.819 184.877 256.27 185.135 258.06 185.135H267.185V189.032H257.861C255.197 189.032 253.01 188.594 251.28 187.7C249.55 186.805 248.278 185.592 247.423 184.022C246.568 182.451 246.171 180.642 246.171 178.614C246.171 176.586 246.588 174.757 247.423 173.147C248.258 171.536 249.55 170.284 251.28 169.389C253.01 168.494 255.217 168.017 257.881 168.017H269.63V202.332L269.611 202.352Z" fill="white"/>
<path d="M7.13739 220.146V229.391H5.68606V221.518H1.45134V229.391H0V220.146H7.13739Z" fill="white"/>
<path d="M9.66228 232.85V220.146H11.054V221.637H11.213C11.3124 221.478 11.4516 221.259 11.6305 221.021C11.8095 220.782 12.0679 220.544 12.4258 220.345C12.7836 220.146 13.221 220.047 13.8175 220.047C14.573 220.047 15.229 220.245 15.8056 220.623C16.3822 221.001 16.8196 221.557 17.1377 222.273C17.4558 222.989 17.6148 223.824 17.6148 224.818C17.6148 225.812 17.4558 226.647 17.1377 227.363C16.8196 228.079 16.3623 228.635 15.8056 229.033C15.229 229.43 14.573 229.609 13.8175 229.609C13.2409 229.609 12.7836 229.51 12.4457 229.311C12.1077 229.112 11.8293 228.874 11.6504 228.615C11.4715 228.357 11.3124 228.138 11.213 227.979H11.0937V232.87H9.6424L9.66228 232.85ZM13.6187 228.257C14.1753 228.257 14.6525 228.098 15.0302 227.8C15.408 227.482 15.6863 227.065 15.8851 226.548C16.0839 226.031 16.1635 225.434 16.1635 224.798C16.1635 224.162 16.0641 223.585 15.8851 223.068C15.7062 222.552 15.408 222.154 15.0302 221.836C14.6525 221.538 14.1753 221.379 13.6187 221.379C13.062 221.379 12.6047 221.518 12.227 221.816C11.8492 222.094 11.5709 222.492 11.3721 223.009C11.1733 223.526 11.0937 224.122 11.0937 224.798C11.0937 225.474 11.1931 226.09 11.3721 226.607C11.551 227.124 11.8492 227.542 12.227 227.84C12.6047 228.138 13.062 228.277 13.5988 228.277L13.6187 228.257Z" fill="white"/>
<path d="M23.3805 229.59C22.5653 229.59 21.8496 229.391 21.2333 228.993C20.617 228.595 20.1398 228.039 19.8018 227.323C19.4638 226.607 19.2849 225.772 19.2849 224.818C19.2849 223.864 19.4638 223.009 19.8018 222.293C20.1398 221.577 20.617 221.021 21.2333 220.623C21.8496 220.225 22.5653 220.027 23.3805 220.027C24.1956 220.027 24.9113 220.225 25.5276 220.623C26.144 221.021 26.6211 221.577 26.9591 222.293C27.2971 223.009 27.476 223.864 27.476 224.818C27.476 225.772 27.2971 226.607 26.9591 227.323C26.6211 228.039 26.144 228.595 25.5276 228.993C24.9113 229.391 24.1956 229.59 23.3805 229.59ZM23.3805 228.257C23.9769 228.257 24.4739 228.098 24.8716 227.78C25.2692 227.462 25.5475 227.045 25.7463 226.528C25.9253 226.011 26.0247 225.434 26.0247 224.838C26.0247 224.241 25.9253 223.665 25.7463 223.128C25.5674 222.611 25.2692 222.174 24.8716 221.856C24.4739 221.538 23.9769 221.379 23.3805 221.379C22.784 221.379 22.287 221.538 21.9092 221.856C21.5315 222.174 21.2333 222.611 21.0544 223.128C20.8754 223.645 20.776 224.222 20.776 224.838C20.776 225.454 20.8754 226.011 21.0544 226.528C21.2333 227.045 21.5315 227.462 21.9092 227.78C22.287 228.098 22.784 228.257 23.3805 228.257Z" fill="white"/>
<path d="M33.2415 229.59C32.4264 229.59 31.7107 229.391 31.0943 228.993C30.478 228.595 30.0009 228.039 29.6629 227.323C29.3249 226.607 29.146 225.772 29.146 224.818C29.146 223.864 29.3249 223.009 29.6629 222.293C30.0009 221.577 30.478 221.021 31.0943 220.623C31.7107 220.225 32.4264 220.027 33.2415 220.027C33.6789 220.027 34.0765 220.086 34.4742 220.206C34.8519 220.325 35.2098 220.484 35.5279 220.703C35.846 220.921 36.1243 221.18 36.343 221.498C36.5816 221.816 36.7406 222.174 36.8798 222.571L35.4881 222.969C35.4285 222.73 35.3291 222.512 35.1899 222.313C35.0507 222.114 34.8917 221.935 34.7127 221.796C34.5139 221.657 34.2952 221.538 34.0567 221.458C33.8181 221.379 33.5397 221.339 33.2415 221.339C32.6451 221.339 32.148 221.498 31.7703 221.816C31.3926 222.134 31.0943 222.571 30.9154 223.088C30.7365 223.605 30.6371 224.182 30.6371 224.798C30.6371 225.414 30.7365 225.971 30.9154 226.488C31.0943 227.005 31.3926 227.422 31.7703 227.741C32.148 228.059 32.6451 228.218 33.2415 228.218C33.5397 228.218 33.8181 228.178 34.0765 228.098C34.335 228.019 34.5537 227.9 34.7525 227.741C34.9513 227.582 35.1104 227.403 35.2495 227.204C35.3887 227.005 35.4881 226.766 35.5477 226.508L36.9196 226.906C36.8003 227.323 36.6213 227.681 36.4026 227.999C36.1641 228.317 35.8857 228.595 35.5676 228.834C35.2495 229.073 34.8917 229.232 34.494 229.351C34.0964 229.47 33.6988 229.53 33.2415 229.53V229.59Z" fill="white"/>
<path d="M40.8163 229.391V221.478H37.854V220.146H45.1902V221.478H42.2477V229.391H40.7964H40.8163Z" fill="white"/>
<path d="M48.0134 223.466H50.5979C51.3137 223.466 51.9101 223.585 52.3872 223.844C52.8843 224.102 53.2421 224.44 53.5006 224.878C53.7591 225.315 53.8783 225.832 53.8783 226.389C53.8783 226.945 53.7591 227.442 53.5006 227.9C53.2421 228.357 52.8843 228.715 52.3872 228.973C51.8902 229.232 51.3137 229.371 50.5979 229.371H46.8006V220.126H48.2519V227.999H50.5979C51.1347 227.999 51.5721 227.86 51.9101 227.562C52.2481 227.263 52.427 226.906 52.427 226.448C52.427 225.991 52.2481 225.574 51.9101 225.275C51.5721 224.977 51.1347 224.818 50.5979 224.818H48.0134V223.446V223.466ZM54.9122 229.391V220.146H56.3635V229.391H54.9122Z" fill="white"/>
<path d="M62.666 229.59C61.7912 229.59 61.0556 229.391 60.4194 228.993C59.7832 228.595 59.306 228.039 58.968 227.323C58.63 226.607 58.4511 225.792 58.4511 224.838C58.4511 223.884 58.6102 223.049 58.9481 222.333C59.2861 221.617 59.7434 221.041 60.3597 220.643C60.976 220.245 61.6719 220.027 62.487 220.027C62.9642 220.027 63.4413 220.106 63.8986 220.265C64.3559 220.424 64.7734 220.683 65.1511 221.06C65.5289 221.418 65.8271 221.895 66.0458 222.492C66.2645 223.088 66.3838 223.804 66.3838 224.659V225.275H59.4253V224.023H65.6084L64.9324 224.48C64.9324 223.884 64.833 223.327 64.6541 222.87C64.4752 222.392 64.1968 222.035 63.839 221.756C63.4811 221.498 63.0238 221.359 62.487 221.359C61.9502 221.359 61.493 221.498 61.0953 221.776C60.7176 222.055 60.4194 222.412 60.2206 222.85C60.0217 223.287 59.9223 223.764 59.9223 224.261V225.096C59.9223 225.772 60.0416 226.369 60.2603 226.846C60.4989 227.323 60.817 227.681 61.2345 227.919C61.652 228.158 62.1292 228.297 62.666 228.297C63.0238 228.297 63.3419 228.238 63.6203 228.138C63.8986 228.039 64.1571 227.88 64.3757 227.661C64.5944 227.442 64.7535 227.184 64.8529 226.866L66.2446 227.263C66.1054 227.721 65.8668 228.138 65.5289 228.496C65.1909 228.854 64.7933 229.132 64.2962 229.331C63.7992 229.53 63.2624 229.629 62.6461 229.629L62.666 229.59Z" fill="white"/>
<path d="M73.1036 232.85V220.146H74.4953V221.637H74.6544C74.7538 221.478 74.8929 221.259 75.0719 221.021C75.2508 220.762 75.5093 220.544 75.8671 220.345C76.225 220.146 76.6624 220.047 77.2588 220.047C78.0143 220.047 78.6704 220.245 79.247 220.623C79.8235 221.001 80.2609 221.557 80.579 222.273C80.8971 222.989 81.0562 223.824 81.0562 224.818C81.0562 225.812 80.8971 226.647 80.579 227.363C80.2609 228.079 79.8036 228.635 79.247 229.033C78.6704 229.43 78.0143 229.609 77.2588 229.609C76.7021 229.609 76.225 229.51 75.887 229.311C75.549 229.112 75.2707 228.874 75.0918 228.615C74.9128 228.357 74.7538 228.138 74.6544 227.979H74.5351V232.87H73.0837L73.1036 232.85ZM77.06 228.257C77.6167 228.257 78.0938 228.098 78.4716 227.8C78.8493 227.482 79.1277 227.065 79.3265 226.548C79.5253 226.031 79.6048 225.434 79.6048 224.798C79.6048 224.162 79.5054 223.585 79.3265 223.068C79.1475 222.552 78.8493 222.154 78.4716 221.836C78.0938 221.538 77.6167 221.379 77.06 221.379C76.5033 221.379 76.0461 221.518 75.6683 221.816C75.2906 222.094 75.0122 222.492 74.8134 223.009C74.6146 223.526 74.5351 224.122 74.5351 224.798C74.5351 225.474 74.6345 226.09 74.8134 226.607C75.0122 227.124 75.2906 227.542 75.6683 227.84C76.0461 228.138 76.5033 228.277 77.0401 228.277L77.06 228.257Z" fill="white"/>
<path d="M86.941 229.59C86.0662 229.59 85.3306 229.391 84.6944 228.993C84.0582 228.595 83.581 228.039 83.243 227.323C82.9051 226.607 82.7261 225.792 82.7261 224.838C82.7261 223.884 82.8852 223.049 83.2232 222.333C83.5612 221.617 84.0184 221.041 84.6347 220.643C85.2511 220.245 85.9469 220.027 86.762 220.027C87.2392 220.027 87.7163 220.106 88.1736 220.265C88.6309 220.424 89.0484 220.683 89.4261 221.06C89.8039 221.418 90.1021 221.895 90.3208 222.492C90.5395 223.088 90.6588 223.804 90.6588 224.659V225.275H83.7003V224.023H89.8834L89.2074 224.48C89.2074 223.884 89.108 223.327 88.9291 222.87C88.7502 222.392 88.4718 222.035 88.114 221.756C87.7561 221.498 87.2988 221.359 86.762 221.359C86.2252 221.359 85.768 221.498 85.3703 221.776C84.9926 222.055 84.6944 222.412 84.4956 222.85C84.2968 223.287 84.1973 223.764 84.1973 224.261V225.096C84.1973 225.772 84.3166 226.369 84.5353 226.846C84.7739 227.323 85.092 227.681 85.5095 227.919C85.927 228.158 86.4042 228.297 86.9609 228.297C87.3187 228.297 87.6368 228.238 87.9152 228.138C88.2134 228.039 88.452 227.88 88.6706 227.661C88.8893 227.442 89.0484 227.184 89.1478 226.866L90.5395 227.263C90.4003 227.721 90.1617 228.138 89.8436 228.496C89.5057 228.854 89.108 229.132 88.611 229.331C88.114 229.53 87.5772 229.629 86.9609 229.629L86.941 229.59Z" fill="white"/>
<path d="M92.7464 220.146H94.1977V228.019H97.5179V220.146H98.9692V228.019H102.289V220.146H103.741V229.391H92.7663V220.146H92.7464Z" fill="white"/>
<path d="M110.043 229.59C109.168 229.59 108.433 229.391 107.797 228.993C107.16 228.595 106.683 228.039 106.345 227.323C106.007 226.607 105.828 225.792 105.828 224.838C105.828 223.884 105.987 223.049 106.325 222.333C106.663 221.617 107.121 221.041 107.737 220.643C108.353 220.245 109.049 220.027 109.864 220.027C110.341 220.027 110.818 220.106 111.276 220.265C111.733 220.424 112.151 220.683 112.528 221.06C112.906 221.418 113.204 221.895 113.423 222.492C113.642 223.088 113.761 223.804 113.761 224.659V225.275H106.802V224.023H112.986L112.31 224.48C112.31 223.884 112.21 223.327 112.031 222.87C111.852 222.392 111.574 222.035 111.216 221.756C110.858 221.498 110.401 221.359 109.864 221.359C109.327 221.359 108.87 221.498 108.472 221.776C108.095 222.055 107.796 222.412 107.598 222.85C107.399 223.287 107.299 223.764 107.299 224.261V225.096C107.299 225.772 107.419 226.369 107.637 226.846C107.876 227.323 108.194 227.681 108.612 227.919C109.029 228.158 109.506 228.297 110.063 228.297C110.421 228.297 110.739 228.238 111.017 228.138C111.315 228.039 111.554 227.88 111.773 227.661C111.991 227.442 112.151 227.184 112.25 226.866L113.642 227.263C113.502 227.721 113.264 228.138 112.946 228.496C112.608 228.854 112.21 229.132 111.713 229.331C111.216 229.53 110.679 229.629 110.063 229.629L110.043 229.59Z" fill="white"/>
<path d="M117.3 220.146V229.391H115.849V220.146H117.3ZM121.873 223.963V225.335H116.962V223.963H121.873ZM122.986 220.146V229.391H121.535V220.146H122.986Z" fill="white"/>
<path d="M132.708 229.391H131.256V222.731H131.157L126.902 229.391H125.531V220.146H126.982V226.846H127.081L131.356 220.146H132.728V229.391H132.708Z" fill="white"/>
<path d="M136.008 229.391H134.338L136.843 225.216H138.454L135.988 229.391H136.008ZM141.813 229.391H140.382V221.438H138.354C137.579 221.438 137.022 221.577 136.684 221.876C136.346 222.154 136.187 222.572 136.187 223.069C136.187 223.566 136.346 223.963 136.684 224.242C137.022 224.52 137.579 224.659 138.334 224.659H140.998V225.912H138.235C137.042 225.912 136.167 225.653 135.591 225.136C135.014 224.619 134.736 223.923 134.736 223.069C134.736 222.214 135.014 221.498 135.591 220.961C136.167 220.424 137.042 220.146 138.235 220.146H141.813V229.391Z" fill="white"/>
<path d="M152.629 229.59C151.814 229.59 151.098 229.391 150.482 228.993C149.865 228.595 149.388 228.039 149.05 227.323C148.712 226.607 148.533 225.772 148.533 224.818C148.533 223.864 148.712 223.009 149.05 222.293C149.388 221.577 149.865 221.021 150.482 220.623C151.098 220.225 151.814 220.027 152.629 220.027C153.066 220.027 153.464 220.086 153.862 220.206C154.259 220.325 154.597 220.484 154.915 220.703C155.233 220.921 155.512 221.18 155.73 221.498C155.969 221.816 156.128 222.174 156.267 222.571L154.876 222.969C154.816 222.73 154.716 222.512 154.577 222.313C154.438 222.114 154.279 221.935 154.1 221.796C153.921 221.657 153.683 221.538 153.444 221.458C153.205 221.379 152.927 221.339 152.629 221.339C152.032 221.339 151.535 221.498 151.158 221.816C150.78 222.134 150.482 222.571 150.303 223.088C150.124 223.605 150.024 224.182 150.024 224.798C150.024 225.414 150.124 225.971 150.303 226.488C150.482 227.005 150.78 227.422 151.158 227.741C151.535 228.059 152.032 228.218 152.629 228.218C152.927 228.218 153.206 228.178 153.464 228.098C153.722 228.019 153.941 227.9 154.14 227.741C154.339 227.582 154.498 227.403 154.637 227.204C154.776 227.005 154.876 226.766 154.935 226.508L156.307 226.906C156.188 227.323 156.009 227.681 155.77 227.999C155.532 228.317 155.253 228.595 154.935 228.834C154.617 229.073 154.259 229.232 153.862 229.351C153.464 229.47 153.066 229.53 152.609 229.53L152.629 229.59Z" fill="white"/>
<path d="M157.261 229.391V228.019H157.579C157.838 228.019 158.056 227.959 158.235 227.86C158.414 227.761 158.553 227.562 158.673 227.303C158.792 227.025 158.872 226.647 158.931 226.17C158.991 225.673 159.05 225.057 159.07 224.281L159.229 220.166H165.273V229.411H163.822V221.538H160.601L160.462 224.798C160.422 225.812 160.303 226.667 160.144 227.363C159.965 228.039 159.687 228.556 159.309 228.914C158.931 229.272 158.414 229.431 157.738 229.431H157.241L157.261 229.391Z" fill="white"/>
<path d="M171.476 229.59C170.661 229.59 169.946 229.391 169.329 228.993C168.713 228.595 168.236 228.039 167.898 227.323C167.56 226.607 167.381 225.772 167.381 224.818C167.381 223.864 167.56 223.009 167.898 222.293C168.236 221.577 168.713 221.021 169.329 220.623C169.946 220.225 170.661 220.027 171.476 220.027C172.292 220.027 173.007 220.225 173.624 220.623C174.24 221.021 174.717 221.577 175.055 222.293C175.393 223.009 175.572 223.864 175.572 224.818C175.572 225.772 175.393 226.607 175.055 227.323C174.717 228.039 174.24 228.595 173.624 228.993C173.007 229.391 172.292 229.59 171.476 229.59ZM171.476 228.257C172.073 228.257 172.57 228.098 172.968 227.78C173.365 227.462 173.643 227.045 173.842 226.528C174.021 226.011 174.121 225.434 174.121 224.838C174.121 224.241 174.021 223.665 173.842 223.128C173.663 222.611 173.365 222.174 172.968 221.856C172.57 221.538 172.073 221.379 171.476 221.379C170.88 221.379 170.383 221.538 170.005 221.856C169.627 222.174 169.329 222.611 169.15 223.128C168.971 223.645 168.872 224.222 168.872 224.838C168.872 225.454 168.971 226.011 169.15 226.528C169.329 227.045 169.627 227.462 170.005 227.78C170.383 228.098 170.88 228.257 171.476 228.257Z" fill="white"/>
<path d="M176.566 229.391L180.165 224.679L176.606 220.146H178.316L181.278 224.082H181.994V220.146H183.445V224.082H184.141L187.083 220.146H188.813L185.274 224.679L188.853 229.391H187.103L184.121 225.454H183.445V229.391H181.994V225.454H181.318L178.316 229.391H176.566Z" fill="white"/>
<path d="M192.073 220.146V229.391H190.622V220.146H192.073ZM196.646 223.963V225.335H191.735V223.963H196.646ZM197.759 220.146V229.391H196.308V220.146H197.759Z" fill="white"/>
<path d="M201.517 223.466H204.102C204.798 223.466 205.414 223.585 205.891 223.844C206.388 224.102 206.746 224.44 207.004 224.878C207.263 225.315 207.382 225.832 207.382 226.389C207.382 226.945 207.263 227.442 207.004 227.9C206.746 228.357 206.388 228.715 205.891 228.973C205.394 229.232 204.798 229.371 204.102 229.371H200.304V220.126H201.756V227.999H204.102C204.638 227.999 205.076 227.86 205.414 227.562C205.752 227.263 205.931 226.906 205.931 226.448C205.931 225.991 205.752 225.574 205.414 225.275C205.076 224.977 204.638 224.818 204.102 224.818H201.517V223.446V223.466ZM208.416 229.391V220.146H209.867V229.391H208.416Z" fill="white"/>
<path d="M211.657 229.391L215.195 224.082V225.216L211.835 220.146H213.525L214.639 221.935C214.917 222.393 215.176 222.83 215.394 223.228C215.613 223.625 215.832 224.023 216.05 224.401H215.295C215.533 224.023 215.732 223.645 215.931 223.228C216.13 222.83 216.368 222.393 216.667 221.935L217.8 220.146H219.45L216.09 225.275V224.182L219.589 229.391H217.919L216.607 227.323C216.329 226.866 216.07 226.448 215.871 226.071C215.673 225.673 215.454 225.315 215.235 224.957H215.991C215.772 225.315 215.573 225.693 215.374 226.071C215.195 226.468 214.957 226.886 214.659 227.323L213.327 229.391H211.657Z" fill="white"/>
<path d="M228.774 229.51C228.178 229.51 227.641 229.411 227.144 229.212C226.647 229.013 226.249 228.735 225.951 228.377C225.653 228.019 225.494 227.601 225.474 227.124H226.945C226.965 227.442 227.164 227.701 227.502 227.919C227.86 228.138 228.277 228.238 228.755 228.238C229.291 228.238 229.729 228.098 230.067 227.82C230.405 227.542 230.564 227.184 230.564 226.766C230.564 226.309 230.385 225.951 230.027 225.673C229.669 225.395 229.172 225.255 228.556 225.255H227.979V224.142H228.556C229.073 224.142 229.49 224.003 229.828 223.744C230.166 223.486 230.325 223.128 230.325 222.691C230.325 222.273 230.186 221.935 229.908 221.677C229.629 221.418 229.252 221.279 228.794 221.279C228.337 221.279 227.939 221.398 227.601 221.617C227.263 221.856 227.065 222.154 227.065 222.532H225.673C225.673 222.035 225.832 221.597 226.11 221.219C226.389 220.842 226.766 220.563 227.244 220.345C227.721 220.146 228.238 220.027 228.814 220.027C229.411 220.027 229.928 220.146 230.365 220.365C230.802 220.583 231.14 220.901 231.379 221.299C231.617 221.677 231.737 222.114 231.737 222.571C231.737 223.128 231.578 223.565 231.24 223.903C230.902 224.241 230.504 224.46 230.027 224.56V224.619C230.703 224.738 231.22 224.977 231.578 225.355C231.916 225.733 232.095 226.23 232.095 226.786C232.095 227.303 231.955 227.76 231.657 228.158C231.359 228.556 230.981 228.874 230.464 229.093C229.967 229.311 229.391 229.43 228.735 229.43L228.774 229.51Z" fill="white"/>
<path d="M236.627 229.609C236.051 229.609 235.554 229.49 235.077 229.271C234.619 229.053 234.242 228.735 233.983 228.297C233.705 227.88 233.566 227.363 233.566 226.747C233.566 226.21 233.665 225.792 233.864 225.454C234.063 225.116 234.341 224.858 234.679 224.679C235.017 224.48 235.395 224.341 235.812 224.261C236.23 224.162 236.647 224.102 237.065 224.043C237.602 223.963 238.039 223.923 238.377 223.884C238.715 223.844 238.973 223.784 239.132 223.685C239.291 223.585 239.371 223.426 239.371 223.208V223.148C239.371 222.77 239.311 222.432 239.172 222.174C239.033 221.915 238.814 221.697 238.536 221.557C238.258 221.418 237.92 221.339 237.502 221.339C237.085 221.339 236.707 221.398 236.409 221.538C236.11 221.677 235.852 221.856 235.673 222.055C235.474 222.253 235.335 222.472 235.236 222.691L233.844 222.214C234.083 221.657 234.381 221.219 234.778 220.901C235.176 220.583 235.594 220.365 236.071 220.225C236.548 220.086 237.005 220.027 237.462 220.027C237.761 220.027 238.099 220.066 238.476 220.146C238.854 220.225 239.232 220.365 239.59 220.583C239.948 220.802 240.246 221.14 240.464 221.557C240.683 221.975 240.822 222.571 240.822 223.287V229.391H239.411V228.138H239.311C239.212 228.357 239.053 228.576 238.814 228.794C238.596 229.033 238.297 229.212 237.94 229.371C237.582 229.53 237.144 229.609 236.647 229.609H236.627ZM236.886 228.297C237.423 228.297 237.88 228.198 238.238 227.979C238.616 227.76 238.894 227.482 239.073 227.144C239.272 226.806 239.351 226.448 239.351 226.071V224.798C239.351 224.798 239.172 224.937 238.973 224.997C238.775 225.057 238.556 225.096 238.297 225.156C238.039 225.196 237.8 225.236 237.562 225.275C237.323 225.295 237.144 225.335 237.005 225.355C236.647 225.395 236.329 225.474 236.031 225.574C235.733 225.673 235.494 225.832 235.295 226.051C235.116 226.249 235.017 226.528 235.017 226.886C235.017 227.204 235.097 227.462 235.256 227.681C235.415 227.9 235.633 228.059 235.912 228.178C236.19 228.297 236.508 228.337 236.866 228.337L236.886 228.297Z" fill="white"/>
<path d="M242.393 232.055V228.019H243.129C243.308 227.82 243.467 227.621 243.606 227.383C243.745 227.144 243.864 226.886 243.944 226.568C244.043 226.25 244.123 225.852 244.202 225.415C244.262 224.957 244.341 224.42 244.381 223.784L244.679 220.166H250.465V228.039H251.837V232.075H250.405V229.431H243.844V232.075H242.393V232.055ZM244.779 228.019H249.033V221.518H245.992L245.793 223.764C245.713 224.739 245.594 225.594 245.435 226.309C245.296 227.025 245.057 227.602 244.759 228.019H244.779Z" fill="white"/>
<path d="M255.932 229.609C255.356 229.609 254.859 229.49 254.381 229.271C253.924 229.053 253.546 228.735 253.288 228.297C253.01 227.88 252.87 227.363 252.87 226.747C252.87 226.21 252.97 225.792 253.169 225.454C253.368 225.116 253.646 224.858 253.984 224.679C254.322 224.48 254.7 224.341 255.117 224.261C255.535 224.162 255.952 224.102 256.37 224.043C256.906 223.963 257.344 223.923 257.682 223.884C258.02 223.844 258.278 223.784 258.437 223.685C258.596 223.585 258.676 223.426 258.676 223.208V223.148C258.676 222.77 258.616 222.432 258.477 222.174C258.338 221.915 258.119 221.697 257.841 221.557C257.562 221.418 257.224 221.339 256.807 221.339C256.389 221.339 256.012 221.398 255.713 221.538C255.415 221.677 255.157 221.856 254.978 222.055C254.779 222.253 254.64 222.472 254.541 222.691L253.149 222.214C253.387 221.657 253.686 221.219 254.083 220.901C254.481 220.583 254.898 220.365 255.376 220.225C255.853 220.086 256.31 220.027 256.767 220.027C257.065 220.027 257.403 220.066 257.781 220.146C258.159 220.225 258.537 220.365 258.895 220.583C259.252 220.802 259.551 221.14 259.769 221.557C259.988 221.975 260.127 222.571 260.127 223.287V229.391H258.716V228.138H258.616C258.517 228.357 258.358 228.576 258.119 228.794C257.9 229.033 257.602 229.212 257.244 229.371C256.887 229.53 256.449 229.609 255.952 229.609H255.932ZM256.191 228.297C256.727 228.297 257.185 228.198 257.543 227.979C257.92 227.76 258.199 227.482 258.378 227.144C258.576 226.806 258.656 226.448 258.656 226.071V224.798C258.656 224.798 258.477 224.937 258.278 224.997C258.079 225.057 257.861 225.096 257.602 225.156C257.344 225.196 257.105 225.236 256.867 225.275C256.628 225.295 256.449 225.335 256.31 225.355C255.952 225.395 255.634 225.474 255.336 225.574C255.038 225.673 254.799 225.832 254.6 226.051C254.421 226.249 254.322 226.528 254.322 226.886C254.322 227.204 254.401 227.462 254.56 227.681C254.719 227.9 254.938 228.059 255.216 228.178C255.495 228.297 255.813 228.337 256.171 228.337L256.191 228.297Z" fill="white"/>
<path d="M266.072 226.508C265.038 226.508 264.203 226.23 263.587 225.653C262.97 225.096 262.652 224.242 262.652 223.108V220.146H264.103V223.108C264.103 223.804 264.282 224.321 264.66 224.639C265.038 224.957 265.495 225.136 266.072 225.136C266.648 225.136 267.165 225.077 267.642 224.977C268.119 224.878 268.577 224.719 269.054 224.56V225.931C268.736 226.051 268.438 226.15 268.119 226.23C267.821 226.309 267.483 226.389 267.165 226.428C266.847 226.468 266.469 226.508 266.072 226.508ZM268.179 229.411V220.166H269.63V229.411H268.179Z" fill="white"/>
</svg>
