<svg width="18" height="18" viewBox="0 0 18 18" fill="none" xmlns="http://www.w3.org/2000/svg">
<path d="M13.1172 12.4172L13.1371 12.3933C13.2328 12.2826 13.3268 12.169 13.4159 12.054L13.4372 12.0268L13.4704 11.9822C14.4831 10.6335 15.0107 8.98221 14.9678 7.29604C14.9248 5.60986 14.3139 3.98759 13.2339 2.69213C12.1539 1.39666 10.6682 0.503928 9.01757 0.158595C7.3669 -0.186738 5.64801 0.0355707 4.13945 0.789493C2.6309 1.54342 1.42109 2.78477 0.706082 4.31238C-0.00892158 5.83999 -0.187221 7.56434 0.200086 9.20598C0.587393 10.8476 1.51761 12.3103 2.83997 13.3571C4.16234 14.4038 5.79937 14.9733 7.48576 14.9731C9.14218 14.971 10.7514 14.4209 12.0626 13.4086C12.1719 13.3238 12.2829 13.2328 12.3932 13.1377L12.4111 13.1218L12.4341 13.1018C12.567 12.9865 12.6766 12.8825 12.7796 12.7798C12.8826 12.6771 12.9886 12.5638 13.0969 12.4402L13.1172 12.4172ZM11.6144 11.615C10.6591 12.5707 9.40195 13.1655 8.05728 13.2981C6.71261 13.4307 5.36359 13.0928 4.24009 12.342C3.11658 11.5912 2.28812 10.474 1.89586 9.18079C1.5036 7.88754 1.57182 6.49827 2.0889 5.24969C2.60597 4.00112 3.5399 2.9705 4.73155 2.33346C5.9232 1.69642 7.29884 1.49237 8.62404 1.75609C9.94925 2.0198 11.142 2.73496 11.9991 3.77971C12.8562 4.82445 13.3246 6.13412 13.3245 7.48557C13.3264 8.25251 13.1763 9.01221 12.8827 9.72073C12.5892 10.4293 12.1581 11.0725 11.6144 11.6133V11.615ZM17.9868 16.2014L17.7668 15.9827L15.344 13.5594C15.3339 13.5496 15.3205 13.5442 15.3064 13.5442C15.2924 13.5442 15.2789 13.5496 15.2689 13.5594L15.1875 13.6402L14.0435 14.7847L13.5601 15.2686C13.5502 15.2791 13.5447 15.293 13.5448 15.3074C13.5454 15.3208 13.5508 15.3334 13.5601 15.343L16.2015 17.9856C16.2066 17.9905 16.2127 17.9943 16.2193 17.9968C16.226 17.9992 16.233 18.0003 16.2401 17.9999C16.2531 18.0001 16.2656 17.9951 16.275 17.986L17.1309 17.1312L17.9851 16.2755C17.9947 16.2655 18 16.2523 18 16.2384C18 16.2246 17.9947 16.2114 17.9851 16.2014H17.9868ZM14.314 13.4212L13.7548 12.8622L13.6837 12.9446L13.6754 12.9543L13.6598 12.9722C13.5418 13.1051 13.4342 13.2191 13.3275 13.3258C13.2209 13.4325 13.1125 13.5345 12.9763 13.6558L12.973 13.6595L12.9594 13.6708L12.8643 13.7528L13.4232 14.3128L13.8688 13.8665L14.314 13.4212Z" fill="black"/>
</svg>
