<svg width="32" height="32" viewBox="0 0 32 32" fill="none" xmlns="http://www.w3.org/2000/svg">
<path d="M23.3195 22.0751L23.3549 22.0326C23.525 21.8358 23.6922 21.6338 23.8505 21.4293L23.8883 21.3809L23.9473 21.3017C25.7477 18.904 26.6857 15.9684 26.6094 12.9707C26.5331 9.97309 25.4469 7.08905 23.527 4.786C21.607 2.48296 18.9658 0.895871 16.0312 0.281947C13.0967 -0.331978 10.0409 0.0632369 7.35902 1.40354C4.67715 2.74385 2.52637 4.9507 1.25526 7.66646C-0.0158606 10.3822 -0.332838 13.4477 0.355709 16.3662C1.04425 19.2846 2.69797 21.885 5.04884 23.7459C7.39972 25.6068 10.31 26.6192 13.308 26.6189C16.2528 26.6151 19.1136 25.6371 21.4446 23.8374C21.639 23.6868 21.8363 23.5249 22.0324 23.3559L22.0643 23.3276L22.105 23.2921C22.3413 23.0871 22.5362 22.9022 22.7193 22.7196C22.9024 22.5371 23.0909 22.3356 23.2834 22.1158L23.3195 22.0751ZM20.6478 20.6489C18.9494 22.3479 16.7146 23.4054 14.3241 23.6411C11.9335 23.8767 9.53527 23.276 7.53793 21.9413C5.5406 20.6066 4.06777 18.6205 3.37042 16.3214C2.67307 14.0223 2.79435 11.5525 3.71359 9.33278C4.63284 7.11309 6.29316 5.28089 8.41165 4.14838C10.5301 3.01586 12.9757 2.6531 15.3316 3.12193C17.6876 3.59076 19.8081 4.86216 21.3318 6.71948C22.8556 8.5768 23.6883 10.9051 23.688 13.3077C23.6914 14.6711 23.4244 16.0217 22.9026 17.2813C22.3808 18.5409 21.6144 19.6845 20.6478 20.646V20.6489ZM31.9765 28.8025L31.5854 28.4137L27.2782 24.1057C27.2603 24.0883 27.2364 24.0785 27.2114 24.0785C27.1865 24.0785 27.1626 24.0883 27.1447 24.1057L27 24.2492L24.9663 26.2839L24.1068 27.1441C24.0892 27.1628 24.0794 27.1875 24.0797 27.2132C24.0806 27.2369 24.0903 27.2594 24.1068 27.2764L28.8027 31.9745C28.8118 31.9832 28.8226 31.9899 28.8343 31.9943C28.8461 31.9987 28.8587 32.0006 28.8713 31.9999C28.8944 32.0001 28.9167 31.9912 28.9333 31.975L30.4549 30.4555L31.9735 28.9342C31.9905 28.9165 32 28.8929 32 28.8683C32 28.8438 31.9905 28.8202 31.9735 28.8025H31.9765ZM25.4471 23.8599L24.453 22.8662L24.3266 23.0127L24.3118 23.0298L24.284 23.0617C24.0743 23.298 23.883 23.5007 23.6933 23.6903C23.5037 23.88 23.3112 24.0613 23.069 24.277L23.0631 24.2835L23.0389 24.3036L22.8699 24.4495L23.8635 25.445L24.6556 24.6515L25.4471 23.8599Z" fill="white"/>
</svg>
