<svg width="32" height="32" viewBox="0 0 32 32" fill="none" xmlns="http://www.w3.org/2000/svg">
<path fill-rule="evenodd" clip-rule="evenodd" d="M31.9847 20.915V11.1189C31.9847 2.17123 29.8721 0.0424156 20.9217 0.0424156C-0.965977 -0.0980237 -0.103473 -0.988145 0.0433651 20.8985C0.0433651 29.8462 2.15602 31.975 11.1064 31.975H18.5355C28.045 32.139 32.2238 31.4853 31.9847 20.915ZM25.8296 22.8279H23.5004C22.6187 22.8279 22.3527 22.1126 20.7721 20.5327C19.3913 19.2021 18.809 19.0357 18.4598 19.0357C17.9772 19.0357 17.8441 19.1688 17.8441 19.8339V21.9294C17.8441 22.4949 17.6613 22.8276 16.1804 22.8276C13.7182 22.8276 11.0067 21.3306 9.07661 18.57C6.18194 14.5285 5.39993 11.4682 5.39993 10.8529C5.39993 10.5036 5.53296 10.1874 6.19845 10.1874H8.52765C9.12645 10.1874 9.34267 10.4534 9.57572 11.0688C10.5305 14.1988 13.801 19.4072 13.8512 16.4075V12.9814C13.7515 11.418 12.9197 11.285 12.9197 10.7195C12.9197 10.4699 13.1527 10.1874 13.5185 10.1874H17.1783C17.6774 10.1874 17.8438 10.4369 17.8438 11.0354V15.6591C17.9071 16.7678 18.5968 16.3317 19.2913 15.6093C20.9715 13.7465 22.1526 10.8525 22.1526 10.8525C22.3025 10.5033 22.5685 10.1874 23.1674 10.1874H25.4966C26.1954 10.1874 26.3449 10.5366 26.1954 11.0357C25.9125 12.3994 23.0677 16.391 23.0677 16.4078C22.8181 16.7904 22.7184 16.9901 23.0677 17.439C23.7382 18.2746 28.6243 22.6872 25.8296 22.8279Z" fill="#345E90"/>
</svg>
