<svg width="42" height="30" viewBox="0 0 42 30" fill="none" xmlns="http://www.w3.org/2000/svg">
<path d="M41.136 4.569C40.8957 3.68252 40.4275 2.87438 39.7781 2.22492C39.1286 1.57546 38.3205 1.1073 37.434 0.867C34.146 8.9407e-08 21 0 21 0C21 0 7.854 8.9407e-08 4.566 0.867C2.766 1.35 1.35 2.769 0.864 4.569C0 7.854 0 14.67 0 14.67C0 14.67 0 21.519 0.864 24.771C1.35 26.571 2.769 27.99 4.566 28.473C7.854 29.34 21 29.34 21 29.34C21 29.34 34.146 29.34 37.434 28.473C38.3205 28.2327 39.1286 27.7645 39.7781 27.1151C40.4275 26.4656 40.8957 25.6575 41.136 24.771C42 21.486 42 14.67 42 14.67C42 14.67 42 7.854 41.136 4.569Z" fill="#FF0000"/>
<path d="M16.7789 21L27.7109 14.706L16.7789 8.37598V21Z" fill="white"/>
</svg>
